<?xml version="1.0" encoding="utf-8"?>
<!-- Generator: Adobe Illustrator 16.0.3, SVG Export Plug-In . SVG Version: 6.00 Build 0)  -->
<!DOCTYPE svg PUBLIC "-//W3C//DTD SVG 1.1//EN" "http://www.w3.org/Graphics/SVG/1.1/DTD/svg11.dtd">
<svg version="1.1" id="logo_liscc" xmlns="http://www.w3.org/2000/svg" xmlns:xlink="http://www.w3.org/1999/xlink" x="0px" y="0px"
	 width="200px" height="200px" viewBox="0 0 200 200" enable-background="new 0 0 200 200" xml:space="preserve">
<g>
	<g>
		<g>
			<g>
				<path id="SVGID_1_" fill="#3BA051" d="M142.057,122.5c-1.394-2.271-5.521-4.284-9.388-5.743
					c-2.342,3.048-2.39,6.843-1.842,9.884c4.101,4.455,8.774,6.862,8.774,6.862l7.961,4.058c1.131,0.598,2.248,1.231,3.336,1.916
					c0.354-2.961,1.783-14.987,1.783-14.987c2.281-15.382-6.551-29.486-6.551-29.486C137.379,112.322,142.057,122.5,142.057,122.5"
					/>
			</g>
		</g>
	</g>
	<g>
		<g>
			<g>
				<path id="SVGID_3_" fill="#30A547" d="M151.688,146.848c0.949,1.713,3.518,2.521,4.555,0.357
					c1.252-2.607-0.885-4.514-2.741-5.941c-0.831-0.641-1.704-1.229-2.603-1.785C150.854,139.893,150.27,144.286,151.688,146.848"/>
			</g>
		</g>
	</g>
	<path fill="#F42534" d="M132.669,116.757c-4.06-1.539-7.83-2.475-7.83-2.475c0.478,5.052,3.093,9.217,5.989,12.358
		C130.277,123.604,130.327,119.802,132.669,116.757"/>
	<path fill="#3E3A39" d="M40.904,123.032h6.085c0.458,0.036,0.554,0.126,0.588,0.665v7.143h-5.911
		c-0.571-0.027-0.73-0.191-0.762-0.814V123.032z M51.148,125.645h4.688v3.06h-4.81L51.148,125.645z M39.702,133.877h11.114
		l0.079-2.23h4.933l0.007,3.402h3.521v-15.424h-3.521v3.078h-4.551l0.01-0.447H51.06h0.234v-0.171c0-1.326-0.794-2.093-2.139-2.093
		h-11.77v11.594C37.385,133.042,38.23,133.877,39.702,133.877"/>
	<path fill="#3E3A39" d="M55.668,141.916c0,1.096-0.387,1.949-1.159,2.629c-0.794,0.68-1.777,1.031-3.01,1.031
		c-1.247,0-2.249-0.354-3.03-1.031c-0.781-0.68-1.161-1.533-1.168-2.629c0.008-1.1,0.387-1.957,1.168-2.643
		c0.781-0.685,1.783-1.027,3.03-1.03c1.233,0.003,2.216,0.347,3.01,1.03C55.281,139.958,55.668,140.816,55.668,141.916
		 M45.851,137.163c-1.373,1.233-2.063,2.835-2.063,4.752c0,1.937,0.672,3.519,2.023,4.712c1.396,1.273,3.306,1.895,5.688,1.891
		h0.018c2.361,0,4.252-0.617,5.653-1.896c1.353-1.188,2.044-2.77,2.044-4.705c0-1.917-0.701-3.52-2.081-4.752
		c-1.375-1.229-3.269-1.83-5.635-1.826C49.117,135.333,47.21,135.936,45.851,137.163"/>
	<path fill="#3E3A39" d="M108.061,145.004h-9.742c-0.668-0.033-0.846-0.213-0.874-0.865v-3.754h10.038
		c0.44,0.034,0.543,0.131,0.578,0.648V145.004z M111.738,138.88c0-0.465-0.079-0.835-0.287-1.112
		c-0.253-0.313-0.658-0.41-1.166-0.41H93.928v8.219c0,0.846,0.144,1.479,0.514,1.891c0.383,0.408,0.985,0.574,1.771,0.574h15.526
		L111.738,138.88L111.738,138.88z"/>
	<path fill="#3E3A39" d="M94.191,126.585c0.606-0.625,1.372-0.937,2.379-0.938c1.006,0.004,1.771,0.313,2.362,0.938
		c0.594,0.627,0.892,1.433,0.898,2.47c-0.006,1.043-0.304,1.844-0.898,2.475c-0.591,0.621-1.356,0.929-2.362,0.945
		c-1.008-0.018-1.773-0.324-2.379-0.945c-0.603-0.631-0.896-1.432-0.896-2.475C93.296,128.018,93.588,127.215,94.191,126.585
		 M89.851,129.049c0,1.928,0.618,3.52,1.85,4.688c1.229,1.18,2.864,1.773,4.87,1.771c1.758,0.005,3.237-0.458,4.425-1.392
		c1.129-0.889,1.844-2.104,2.111-3.577h5.033v5.394h3.518v-16.307h-3.518v7.938h-5.004c-0.171-0.883-0.498-1.674-0.986-2.367h2.632
		v-3.032H98.36v-3.49h-3.523v3.49h-6.612v3.032h2.746C90.229,126.25,89.851,127.54,89.851,129.049"/>
	<path fill="#3E3A39" d="M69.673,131.506c-0.699-0.037-0.896-0.247-0.931-0.936v-3.696h11.994l0.003,4.631L69.673,131.506
		L69.673,131.506z M87.357,138.98h-10.85v-4.441h7.748v-14.58h-3.516v3.895H68.742v-3.895h-3.513v12.053
		c0,0.838,0.163,1.477,0.559,1.916c0.403,0.424,1.048,0.611,1.886,0.611h5.313v4.441H62.121v3.031h25.237L87.357,138.98
		L87.357,138.98z"/>
	<polygon fill="#3E3A39" points="27.635,128.361 30.406,128.361 30.406,134.539 33.922,134.539 33.922,119.625 30.406,119.625 
		30.406,125.326 27.635,125.326 27.635,119.625 24.124,119.625 24.124,134.125 27.635,134.125 	"/>
	<path fill="#3E3A39" d="M30.13,141.771c0,1.062-0.409,1.946-1.248,2.695c-0.851,0.729-1.877,1.111-3.151,1.111
		s-2.314-0.383-3.156-1.111c-0.823-0.751-1.229-1.628-1.229-2.695c0-1.031,0.396-1.906,1.229-2.655
		c0.842-0.738,1.882-1.116,3.156-1.119c1.273,0.003,2.3,0.38,3.151,1.119C29.721,139.865,30.13,140.74,30.13,141.771
		 M19.867,137.143c-1.317,1.26-1.983,2.822-1.983,4.629c0,1.832,0.666,3.406,1.983,4.66c1.479,1.398,3.449,2.088,5.864,2.088h0.024
		c2.404,0,4.351-0.689,5.824-2.088c1.315-1.254,1.981-2.826,1.98-4.66c0.001-1.807-0.666-3.369-1.98-4.629
		c-1.473-1.406-3.435-2.109-5.848-2.106C23.316,135.033,21.347,135.736,19.867,137.143"/>
	<path fill="#3E3A39" d="M12.144,134.746c1.155-0.719,2.166-1.673,3.031-2.866c0.773-1.048,1.321-2.116,1.648-3.225
		c0.364,1.015,0.935,2.02,1.693,3.012c0.901,1.188,1.816,2.058,2.786,2.595l0.182,0.116l1.76-2.448l-0.194-0.144
		c-1.554-1.159-2.693-2.558-3.422-4.198c-0.731-1.629-1.103-3.717-1.103-6.251v-1.379h-3.583v1.379
		c0.005,2.716-0.351,4.894-1.032,6.495c-0.695,1.616-1.926,3.105-3.72,4.475L10,132.452l1.975,2.401L12.144,134.746z"/>
	<polygon fill="#3E3A39" points="75.965,160.863 72.499,160.863 72.499,166.264 63.348,166.264 63.348,169.129 88.184,169.129 
		88.184,166.264 75.965,166.264 	"/>
	<path fill="#3E3A39" d="M85.055,156.027c0-0.545-0.081-0.98-0.267-1.314c-0.274-0.449-0.813-0.639-1.502-0.639H66.771v2.871H80.64
		c0.441,0.023,0.575,0.174,0.606,0.84v6.27h3.261l0.539-7.527l-0.235-0.029l0.235,0.02
		C85.055,156.342,85.055,156.178,85.055,156.027"/>
	<path fill="#3E3A39" d="M78.863,178.973c-0.785,0.596-1.826,0.904-3.135,0.904c-1.312,0-2.338-0.311-3.136-0.904
		c-0.779-0.592-1.145-1.354-1.159-2.332c0.014-0.965,0.372-1.707,1.159-2.297c0.77-0.615,1.806-0.912,3.136-0.912
		c1.329,0,2.368,0.297,3.148,0.912c0.775,0.59,1.142,1.332,1.142,2.297C80.019,177.619,79.642,178.381,78.863,178.973
		 M75.728,170.436c-2.425,0-4.344,0.549-5.713,1.646c-1.39,1.1-2.073,2.643-2.073,4.561c0,1.912,0.684,3.459,2.06,4.566
		c1.382,1.115,3.302,1.648,5.727,1.648c2.428,0,4.34-0.533,5.727-1.648c1.369-1.107,2.06-2.654,2.06-4.566
		c0-1.918-0.691-3.461-2.066-4.561C80.068,170.984,78.156,170.436,75.728,170.436"/>
	<path fill="#3E3A39" d="M98.005,177.701v-5.098H94.55v6.814c0,0.713,0.115,1.229,0.444,1.596c0.332,0.346,0.847,0.49,1.531,0.49
		h16.392v-2.998H98.839C98.215,178.479,98.045,178.297,98.005,177.701"/>
	<path fill="#3E3A39" d="M93.865,163.695c0-1.162,0.303-2.045,0.877-2.701c0.587-0.676,1.35-0.988,2.359-0.996
		c0.996,0.008,1.755,0.32,2.327,0.996c0.581,0.656,0.872,1.539,0.872,2.701c0,1.164-0.291,2.053-0.872,2.711
		c-0.571,0.654-1.331,0.979-2.327,0.979c-1.009,0-1.772-0.322-2.359-0.979C94.168,165.746,93.865,164.859,93.865,163.695
		 M101.486,168.943c1.095-0.91,1.791-2.166,2.068-3.727h5.063v8.746h3.457v-19.922h-3.457v8.184l-5.053,0.01
		c-0.168-1.018-0.521-1.916-1.041-2.672h2.564v-2.99h-6.236l-0.034-3.453h-3.456v3.453h-6.407v2.99h2.695
		c-0.793,1.123-1.163,2.51-1.163,4.121c0,2.02,0.588,3.668,1.78,4.873c1.185,1.215,2.819,1.824,4.83,1.816
		C98.856,170.381,100.339,169.895,101.486,168.943"/>
	<polygon fill="#3E3A39" points="36.541,165.65 36.541,162.684 32.283,162.684 32.3,154.037 28.814,154.037 28.814,181.643 
		32.3,181.643 32.283,165.65 	"/>
	<path fill="#3E3A39" d="M20.045,158.605v-4.211h-3.551v4.211c0,3.086-0.466,5.674-1.395,7.773
		c-0.999,2.248-2.631,4.248-4.919,6.014L10,172.535l2.04,2.576l0.181-0.127c1.448-0.891,2.748-2.104,3.9-3.627
		c1.059-1.389,1.811-2.805,2.241-4.229c0.547,1.41,1.389,2.811,2.531,4.236c1.244,1.555,2.471,2.666,3.658,3.336l0.172,0.102
		l1.958-2.635l-0.186-0.131C22.182,168.828,20.045,164.387,20.045,158.605"/>
	<path fill="#3E3A39" d="M44.121,166.107c-0.594-0.559-0.908-1.305-0.908-2.289c0-0.969,0.314-1.717,0.908-2.277
		c0.616-0.574,1.393-0.854,2.411-0.854c1.012,0,1.8,0.279,2.403,0.854c0.603,0.563,0.91,1.311,0.91,2.277
		c0,0.984-0.307,1.73-0.91,2.289c-0.603,0.582-1.391,0.873-2.403,0.873C45.514,166.98,44.737,166.689,44.121,166.107
		 M57.281,154.041v18.453h-9.022v-2.564c1.507-0.283,2.704-0.938,3.612-1.938c0.942-1.08,1.412-2.475,1.412-4.176
		c0-1.441-0.346-2.68-1.053-3.697h2.714v-2.984h-6.652v-3.73h-3.466v3.73h-6.872v2.984h2.889c-0.701,1.02-1.051,2.256-1.051,3.699
		c0,1.699,0.463,3.105,1.421,4.176c0.903,1.027,2.125,1.684,3.614,1.957v2.545h-7.691v2.85h20.146v6.301h3.463v-27.604h-3.464
		V154.041z"/>
	<path fill="#3E3A39" d="M134.482,154.041v15.604h-19.485v2.879h7.036v8.826h3.541v-8.826h8.908v9.119h3.47v-27.602H134.482
		L134.482,154.041z M120.857,157.844c0.74-0.725,1.682-1.109,2.881-1.109c1.18,0,2.13,0.385,2.886,1.131
		c0.755,0.74,1.119,1.689,1.134,2.879c-0.015,1.197-0.379,2.129-1.134,2.871c-0.756,0.73-1.706,1.113-2.886,1.113
		c-1.199,0-2.141-0.383-2.891-1.113c-0.738-0.742-1.101-1.674-1.107-2.871C119.749,159.555,120.109,158.605,120.857,157.844
		 M123.738,167.623c2.359,0,4.229-0.65,5.572-1.973c1.258-1.225,1.879-2.885,1.879-4.906s-0.621-3.682-1.879-4.902
		c-1.346-1.328-3.213-1.975-5.572-1.975c-2.371,0-4.244,0.646-5.594,1.975c-1.265,1.223-1.908,2.881-1.891,4.902
		c-0.02,2.021,0.626,3.682,1.891,4.906C119.494,166.971,121.367,167.623,123.738,167.623"/>
	<path fill="#3E3A39" d="M172.801,166.107c-0.613-0.557-0.917-1.305-0.917-2.285c0-0.973,0.304-1.721,0.899-2.277
		c0.619-0.578,1.402-0.857,2.42-0.857c1.02,0,1.787,0.279,2.404,0.857c0.602,0.559,0.904,1.307,0.904,2.277
		c0,0.98-0.305,1.729-0.904,2.285c-0.617,0.582-1.385,0.873-2.404,0.873C174.188,166.98,173.402,166.689,172.801,166.107
		 M185.907,172.604v0.213c0,0-7.373,0.084-8.98,0.084v-0.084h-0.032v-2.553h0.032v-0.334c1.497-0.285,2.718-0.941,3.603-1.945
		c0.949-1.07,1.426-2.471,1.426-4.17c0-1.441-0.357-2.678-1.063-3.697h2.711v-2.984h-6.646v-3.729h-3.463v3.729h-6.869v2.984h2.879
		c-0.698,1.021-1.038,2.256-1.038,3.705c0,1.691,0.456,3.102,1.413,4.17c0.899,1.027,2.127,1.688,3.615,1.957v2.984h-7.44v2.988
		h7.598c1.928,0,3.476-0.021,4.791-0.057h7.516v5.779h3.454v-27.607h-3.438"/>
	<polygon fill="#3E3A39" points="154.533,172.988 160.225,172.988 160.225,175.092 163.682,175.092 163.682,154.041 
		160.225,154.041 160.225,170.299 154.533,170.299 	"/>
	<path fill="#3E3A39" d="M147.217,156.945c0.586-0.555,1.36-0.826,2.355-0.826c0.99,0,1.763,0.271,2.379,0.826
		c0.581,0.549,0.881,1.27,0.881,2.205c0,0.932-0.3,1.656-0.881,2.203c-0.616,0.564-1.389,0.846-2.379,0.846
		c-0.987,0-1.764-0.279-2.355-0.846c-0.597-0.547-0.9-1.271-0.904-2.203C146.316,158.215,146.62,157.494,147.217,156.945
		 M149.572,164.803c2.145,0,3.848-0.545,5.058-1.664c1.113-1.008,1.665-2.363,1.665-3.988c0-1.641-0.552-3-1.665-4.004
		c-1.21-1.096-2.913-1.631-5.058-1.631c-2.146,0-3.85,0.535-5.061,1.631c-1.113,1.004-1.691,2.363-1.688,4.004
		c-0.008,1.625,0.572,2.98,1.688,3.988C145.723,164.258,147.43,164.803,149.572,164.803"/>
	<path fill="#3E3A39" d="M149.157,177.945v-3.52h-3.438v5.121c0.006,0.701,0.124,1.217,0.436,1.561
		c0.332,0.336,0.828,0.447,1.539,0.447h17.113v-2.773h-14.882C149.348,178.746,149.188,178.582,149.157,177.945"/>
	<path fill="#3E3A39" d="M157.628,165.709l-0.131,0.02c-0.806,0.154-1.597,0.277-2.394,0.318c-1.205,0.104-2.72,0.162-4.574,0.162
		h-9.331v2.77h6.487v4.244h3.426v-4.27c1.423-0.027,2.76-0.143,3.978-0.324c0.992-0.16,1.818-0.355,2.539-0.596V165.709
		L157.628,165.709z"/>
	<polygon fill="#3E3A39" points="12.042,186.205 12.042,192.52 15.359,192.52 15.359,191.832 12.809,191.832 12.809,186.205 	"/>
	<path fill="#3E3A39" d="M16.284,187.984h0.782v4.535h-0.782V187.984z M17.156,186.709c0.003,0.281-0.199,0.508-0.496,0.508
		c-0.275,0-0.472-0.227-0.472-0.508c0-0.291,0.2-0.52,0.489-0.52C16.958,186.191,17.156,186.418,17.156,186.709"/>
	<path fill="#3E3A39" d="M18.525,192.52v-3.918h-0.597v-0.617h0.597v-0.217c0-0.635,0.136-1.223,0.498-1.584
		c0.287-0.303,0.685-0.424,1.038-0.424c0.284,0,0.52,0.07,0.676,0.135l-0.104,0.639c-0.124-0.061-0.274-0.107-0.504-0.107
		c-0.658,0-0.832,0.619-0.832,1.314v0.244h1.035v0.617h-1.035v3.918H18.525z"/>
	<path fill="#3E3A39" d="M23.731,189.805c0-0.527-0.206-1.332-1.079-1.332c-0.794,0-1.139,0.762-1.205,1.332H23.731z M21.44,190.389
		c0.026,1.125,0.688,1.58,1.476,1.58c0.558,0,0.896-0.1,1.189-0.234l0.133,0.6c-0.275,0.127-0.748,0.287-1.424,0.287
		c-1.33,0-2.119-0.93-2.119-2.305c0-1.359,0.771-2.428,2.021-2.428c1.4,0,1.762,1.285,1.762,2.129c0,0.16-0.019,0.287-0.019,0.371
		H21.44L21.44,190.389z"/>
	<rect x="29.5" y="186.203" fill="#3E3A39" width="0.774" height="6.316"/>
	<path fill="#3E3A39" d="M31.769,189.205c0-0.461-0.006-0.85-0.028-1.217h0.686l0.039,0.736h0.025
		c0.217-0.426,0.714-0.84,1.422-0.84c0.593,0,1.512,0.369,1.512,1.92v2.715h-0.778v-2.621c0-0.73-0.261-1.332-0.992-1.332
		c-0.515,0-0.921,0.385-1.044,0.846c-0.047,0.096-0.054,0.236-0.054,0.377v2.73h-0.789L31.769,189.205L31.769,189.205z"/>
	<path fill="#3E3A39" d="M36.678,191.67c0.228,0.162,0.627,0.328,1.025,0.328c0.573,0,0.832-0.303,0.832-0.668
		c0-0.396-0.228-0.617-0.795-0.838c-0.771-0.289-1.132-0.744-1.132-1.289c0-0.727,0.557-1.318,1.479-1.318
		c0.431,0,0.816,0.127,1.054,0.277l-0.2,0.598c-0.17-0.111-0.473-0.268-0.878-0.268c-0.465,0-0.715,0.281-0.715,0.631
		c0,0.363,0.25,0.535,0.818,0.758c0.744,0.297,1.125,0.695,1.125,1.365c0,0.799-0.588,1.373-1.616,1.373
		c-0.458,0-0.895-0.135-1.201-0.32L36.678,191.67z"/>
	<path fill="#3E3A39" d="M43.971,191.277c0,0.469,0.008,0.879,0.04,1.242H43.31l-0.045-0.744h-0.012
		c-0.203,0.363-0.654,0.846-1.422,0.846c-0.668,0-1.477-0.4-1.477-1.98v-2.654h0.779v2.51c0,0.857,0.247,1.441,0.965,1.441
		c0.514,0,0.878-0.389,1.021-0.752c0.041-0.123,0.076-0.27,0.076-0.418v-2.781h0.776V191.277z"/>
	<path fill="#3E3A39" d="M45.351,189.396c0-0.541-0.004-0.998-0.036-1.412H46l0.023,0.893h0.042
		c0.193-0.613,0.662-0.986,1.186-0.986c0.087,0,0.153,0.002,0.227,0.021v0.773c-0.083-0.018-0.166-0.021-0.27-0.021
		c-0.551,0-0.941,0.438-1.042,1.057c-0.017,0.111-0.046,0.242-0.046,0.379v2.424h-0.768L45.351,189.396L45.351,189.396z"/>
	<path fill="#3E3A39" d="M50.556,190.203c-0.852-0.023-1.814,0.145-1.814,1.025c0,0.523,0.334,0.779,0.729,0.779
		c0.562,0,0.918-0.373,1.035-0.756c0.037-0.088,0.05-0.188,0.05-0.258V190.203z M51.315,191.43c0,0.389,0.013,0.775,0.071,1.09
		h-0.711l-0.062-0.574h-0.032c-0.238,0.357-0.695,0.676-1.307,0.676c-0.868,0-1.311-0.652-1.311-1.305
		c0-1.098,0.922-1.691,2.58-1.686v-0.09c0-0.377-0.102-1.059-0.978-1.059c-0.4,0-0.817,0.129-1.121,0.338l-0.171-0.539
		c0.357-0.242,0.874-0.395,1.416-0.395c1.299,0,1.627,0.934,1.627,1.848L51.315,191.43L51.315,191.43z"/>
	<path fill="#3E3A39" d="M52.657,189.205c0-0.461-0.01-0.85-0.037-1.217h0.695l0.047,0.736h0.014c0.214-0.426,0.711-0.84,1.422-0.84
		c0.59,0,1.51,0.369,1.51,1.92v2.715H55.53v-2.621c0-0.73-0.251-1.332-0.986-1.332c-0.517,0-0.919,0.385-1.052,0.846
		c-0.024,0.096-0.045,0.236-0.045,0.377v2.73h-0.79V189.205z"/>
	<path fill="#3E3A39" d="M60.73,192.342c-0.209,0.117-0.66,0.277-1.231,0.277c-1.303,0-2.143-0.941-2.143-2.32
		c0-1.398,0.904-2.408,2.307-2.408c0.464,0,0.871,0.121,1.085,0.229l-0.179,0.639c-0.19-0.107-0.473-0.211-0.906-0.211
		c-0.982,0-1.52,0.768-1.52,1.705c0,1.059,0.646,1.701,1.503,1.701c0.437,0,0.729-0.121,0.946-0.229L60.73,192.342z"/>
	<path fill="#3E3A39" d="M64.398,189.805c0.006-0.527-0.207-1.332-1.079-1.332c-0.795,0-1.145,0.762-1.206,1.332H64.398z
		 M62.106,190.389c0.022,1.125,0.694,1.58,1.473,1.58c0.557,0,0.895-0.1,1.192-0.234l0.134,0.6
		c-0.275,0.127-0.748,0.287-1.427,0.287c-1.325,0-2.115-0.93-2.115-2.305c0-1.359,0.765-2.428,2.015-2.428
		c1.403,0,1.78,1.285,1.78,2.129c0,0.16-0.021,0.287-0.034,0.371H62.106L62.106,190.389z"/>
	<path fill="#3E3A39" d="M70.067,191.533c0.342,0.213,0.849,0.402,1.385,0.402c0.787,0,1.24-0.443,1.24-1.082
		c0-0.592-0.319-0.922-1.125-1.248c-0.971-0.371-1.579-0.9-1.579-1.795c0-0.979,0.779-1.705,1.943-1.705
		c0.603,0,1.048,0.146,1.316,0.305l-0.214,0.664c-0.198-0.111-0.595-0.303-1.139-0.303c-0.808,0-1.122,0.516-1.122,0.941
		c0,0.592,0.361,0.883,1.187,1.227c1.016,0.408,1.528,0.926,1.528,1.855c0,0.969-0.684,1.824-2.1,1.824
		c-0.577,0-1.206-0.193-1.517-0.414L70.067,191.533z"/>
	<path fill="#3E3A39" d="M75.129,190.252c0,1,0.542,1.746,1.305,1.746c0.753,0,1.314-0.744,1.314-1.752
		c0-0.779-0.371-1.754-1.286-1.754C75.535,188.492,75.129,189.396,75.129,190.252 M78.54,190.211c0,1.68-1.099,2.408-2.141,2.408
		c-1.159,0-2.054-0.896-2.054-2.338c0-1.521,0.941-2.396,2.12-2.396C77.703,187.885,78.54,188.822,78.54,190.211"/>
	<path fill="#3E3A39" d="M82.676,192.342c-0.214,0.117-0.66,0.277-1.237,0.277c-1.293,0-2.145-0.941-2.145-2.32
		c0-1.398,0.925-2.408,2.316-2.408c0.456,0,0.867,0.121,1.084,0.229l-0.18,0.639c-0.182-0.107-0.481-0.211-0.904-0.211
		c-0.981,0-1.516,0.768-1.516,1.705c0,1.059,0.633,1.701,1.485,1.701c0.442,0,0.739-0.121,0.954-0.229L82.676,192.342z"/>
	<path fill="#3E3A39" d="M83.676,187.984h0.767v4.535h-0.767V187.984z M84.534,186.709c0.018,0.281-0.188,0.508-0.486,0.508
		c-0.277,0-0.48-0.227-0.48-0.508c0-0.291,0.209-0.52,0.492-0.52C84.346,186.191,84.534,186.418,84.534,186.709"/>
	<path fill="#3E3A39" d="M88.097,190.203c-0.854-0.023-1.811,0.145-1.811,1.025c0,0.523,0.326,0.779,0.729,0.779
		c0.556,0,0.915-0.373,1.032-0.756c0.035-0.088,0.05-0.188,0.05-0.258V190.203z M88.852,191.43c0,0.389,0.015,0.775,0.075,1.09
		H88.21l-0.055-0.574h-0.028c-0.244,0.357-0.698,0.676-1.311,0.676c-0.87,0-1.316-0.652-1.316-1.305
		c0-1.098,0.922-1.691,2.583-1.686v-0.09c0-0.377-0.102-1.059-0.98-1.059c-0.396,0-0.816,0.129-1.119,0.338l-0.175-0.539
		c0.353-0.242,0.873-0.395,1.411-0.395c1.31,0,1.633,0.934,1.633,1.848L88.852,191.43L88.852,191.43z"/>
	<rect x="90.196" y="185.865" fill="#3E3A39" width="0.776" height="6.654"/>
	<path fill="#3E3A39" d="M100.516,192.311c-0.28,0.148-0.845,0.311-1.579,0.311c-1.683,0-2.954-1.129-2.954-3.203
		c0-1.979,1.271-3.314,3.127-3.314c0.741,0,1.217,0.166,1.417,0.275l-0.19,0.666c-0.292-0.146-0.7-0.264-1.204-0.264
		c-1.403,0-2.331,0.949-2.331,2.598c0,1.559,0.845,2.543,2.294,2.543c0.477,0,0.948-0.104,1.266-0.26L100.516,192.311z"/>
	<path fill="#3E3A39" d="M101.925,190.252c0,1,0.54,1.746,1.308,1.746c0.744,0,1.302-0.744,1.302-1.752
		c0-0.779-0.363-1.754-1.281-1.754C102.326,188.492,101.925,189.396,101.925,190.252 M105.329,190.211
		c0,1.68-1.093,2.408-2.138,2.408c-1.15,0-2.045-0.896-2.045-2.338c0-1.521,0.929-2.396,2.121-2.396
		C104.505,187.885,105.329,188.822,105.329,190.211"/>
	<path fill="#3E3A39" d="M106.408,189.205c0-0.461-0.008-0.85-0.045-1.217h0.699l0.045,0.736h0.021
		c0.213-0.426,0.702-0.84,1.413-0.84c0.591,0,1.511,0.369,1.511,1.92v2.715h-0.776v-2.621c0-0.73-0.256-1.332-0.983-1.332
		c-0.519,0-0.918,0.385-1.051,0.846c-0.041,0.096-0.056,0.236-0.056,0.377v2.73h-0.776L106.408,189.205L106.408,189.205z"/>
	<path fill="#3E3A39" d="M112.313,186.896v1.088h1.123v0.617h-1.123v2.455c0,0.564,0.16,0.881,0.597,0.881
		c0.205,0,0.33-0.016,0.448-0.059l0.025,0.605c-0.146,0.076-0.389,0.135-0.686,0.135c-0.364,0-0.659-0.135-0.842-0.361
		c-0.226-0.24-0.309-0.637-0.309-1.182V188.6h-0.66v-0.617h0.66v-0.834L112.313,186.896z"/>
	<path fill="#3E3A39" d="M114.402,189.396c0-0.541-0.008-0.998-0.031-1.412h0.676l0.03,0.893h0.032
		c0.203-0.613,0.666-0.986,1.188-0.986c0.09,0,0.162,0.002,0.225,0.021v0.773c-0.078-0.018-0.157-0.021-0.266-0.021
		c-0.55,0-0.938,0.438-1.049,1.057c-0.018,0.111-0.031,0.242-0.031,0.379v2.424h-0.773V189.396L114.402,189.396z"/>
	<path fill="#3E3A39" d="M117.422,187.984h0.779v4.535h-0.779V187.984z M118.291,186.709c0.014,0.281-0.188,0.508-0.499,0.508
		c-0.267,0-0.468-0.227-0.468-0.508c0-0.291,0.201-0.52,0.488-0.52C118.104,186.191,118.291,186.418,118.291,186.709"/>
	<path fill="#3E3A39" d="M120.363,190.695c0,0.105,0.009,0.213,0.031,0.303c0.15,0.57,0.604,0.965,1.168,0.965
		c0.822,0,1.306-0.707,1.306-1.742c0-0.906-0.438-1.684-1.271-1.684c-0.549,0-1.035,0.387-1.189,1.004
		c-0.028,0.098-0.045,0.211-0.045,0.346V190.695L120.363,190.695z M119.588,185.869h0.775v2.836h0.009
		c0.282-0.496,0.778-0.814,1.471-0.814c1.063,0,1.814,0.92,1.813,2.305c0,1.617-0.969,2.428-1.924,2.428
		c-0.631,0-1.123-0.252-1.44-0.855h-0.028l-0.037,0.756h-0.668c0.017-0.311,0.03-0.773,0.03-1.174L119.588,185.869L119.588,185.869z
		"/>
	<path fill="#3E3A39" d="M128.316,191.277c0,0.469,0.006,0.879,0.025,1.242h-0.685l-0.054-0.744h-0.01
		c-0.207,0.363-0.654,0.846-1.422,0.846c-0.676,0-1.475-0.4-1.475-1.98v-2.654h0.771v2.51c0,0.857,0.247,1.441,0.959,1.441
		c0.531,0,0.884-0.389,1.03-0.752c0.045-0.123,0.072-0.27,0.072-0.418v-2.781h0.779v3.293h0.008V191.277z"/>
	<path fill="#3E3A39" d="M130.637,186.896v1.088h1.117v0.617h-1.117v2.455c0,0.564,0.151,0.881,0.586,0.881
		c0.211,0,0.336-0.016,0.449-0.059l0.038,0.605c-0.151,0.076-0.39,0.135-0.692,0.135c-0.363,0-0.658-0.135-0.838-0.361
		c-0.229-0.24-0.312-0.637-0.312-1.182V188.6h-0.66v-0.617h0.66v-0.834L130.637,186.896z"/>
	<path fill="#3E3A39" d="M132.723,187.984h0.775v4.535h-0.775V187.984z M133.592,186.709c0,0.281-0.191,0.508-0.506,0.508
		c-0.271,0-0.464-0.227-0.464-0.508c0-0.291,0.205-0.52,0.483-0.52C133.4,186.191,133.592,186.418,133.592,186.709"/>
	<path fill="#3E3A39" d="M135.357,190.252c0,1,0.549,1.746,1.308,1.746c0.749,0,1.306-0.744,1.306-1.752
		c0-0.779-0.365-1.754-1.285-1.754C135.759,188.492,135.357,189.396,135.357,190.252 M138.757,190.211
		c0,1.68-1.093,2.408-2.131,2.408c-1.151,0-2.049-0.896-2.049-2.338c0-1.521,0.937-2.396,2.12-2.396
		C137.936,187.885,138.757,188.822,138.757,190.211"/>
	<path fill="#3E3A39" d="M139.842,189.205c0-0.461-0.014-0.85-0.04-1.217h0.696l0.041,0.736h0.021
		c0.207-0.426,0.703-0.84,1.414-0.84c0.602,0,1.52,0.369,1.52,1.92v2.715h-0.782v-2.621c0-0.73-0.258-1.332-0.989-1.332
		c-0.511,0-0.918,0.385-1.054,0.846c-0.026,0.096-0.045,0.236-0.045,0.377v2.73h-0.781L139.842,189.205L139.842,189.205z"/>
	<path fill="#3E3A39" d="M152.984,192.311c-0.282,0.148-0.854,0.311-1.58,0.311c-1.68,0-2.952-1.129-2.952-3.203
		c0-1.979,1.272-3.314,3.125-3.314c0.741,0,1.224,0.166,1.422,0.275l-0.188,0.666c-0.293-0.146-0.707-0.264-1.203-0.264
		c-1.406,0-2.338,0.949-2.338,2.598c0,1.559,0.838,2.543,2.295,2.543c0.475,0,0.953-0.104,1.258-0.26L152.984,192.311z"/>
	<path fill="#3E3A39" d="M154.395,190.252c0,1,0.543,1.746,1.313,1.746c0.738,0,1.296-0.744,1.296-1.752
		c0-0.779-0.356-1.754-1.278-1.754C154.787,188.492,154.395,189.396,154.395,190.252 M157.796,190.211
		c0,1.68-1.093,2.408-2.133,2.408c-1.158,0-2.045-0.896-2.045-2.338c0-1.521,0.938-2.396,2.114-2.396
		C156.969,187.885,157.796,188.822,157.796,190.211"/>
	<path fill="#3E3A39" d="M158.876,189.205c0-0.461-0.011-0.85-0.034-1.217h0.676l0.033,0.723h0.032
		c0.239-0.424,0.642-0.824,1.353-0.824c0.578,0,1.027,0.369,1.211,0.91h0.023c0.127-0.26,0.296-0.463,0.475-0.604
		c0.252-0.203,0.533-0.309,0.951-0.309c0.564,0,1.406,0.389,1.406,1.959v2.678h-0.768v-2.563c0-0.883-0.299-1.41-0.926-1.41
		c-0.449,0-0.791,0.354-0.92,0.762c-0.039,0.109-0.063,0.256-0.063,0.41v2.803h-0.772v-2.719c0-0.729-0.291-1.256-0.894-1.256
		c-0.487,0-0.839,0.424-0.964,0.832c-0.041,0.123-0.063,0.264-0.063,0.398v2.742h-0.758L158.876,189.205L158.876,189.205z"/>
	<path fill="#3E3A39" d="M166.355,189.205c0-0.461-0.008-0.85-0.037-1.217h0.686l0.036,0.723h0.026
		c0.234-0.424,0.641-0.824,1.345-0.824c0.588,0,1.034,0.369,1.215,0.91h0.017c0.135-0.26,0.307-0.463,0.479-0.604
		c0.258-0.203,0.548-0.309,0.953-0.309c0.565,0,1.409,0.389,1.409,1.959v2.678h-0.769v-2.563c0-0.883-0.297-1.41-0.925-1.41
		c-0.447,0-0.779,0.354-0.924,0.762c-0.036,0.109-0.07,0.256-0.07,0.41v2.803h-0.755v-2.719c0-0.729-0.296-1.256-0.896-1.256
		c-0.481,0-0.846,0.424-0.965,0.832c-0.05,0.123-0.063,0.264-0.063,0.398v2.742h-0.767v-3.314h0.004V189.205z"/>
	<path fill="#3E3A39" d="M173.836,187.984h0.788v4.535h-0.788V187.984z M174.709,186.709c0.01,0.281-0.189,0.508-0.504,0.508
		c-0.273,0-0.467-0.227-0.467-0.508c0-0.291,0.207-0.52,0.492-0.52C174.52,186.191,174.709,186.418,174.709,186.709"/>
	<path fill="#3E3A39" d="M176.95,186.896v1.088h1.118v0.617h-1.118v2.455c0,0.564,0.147,0.881,0.575,0.881
		c0.216,0,0.341-0.016,0.453-0.059l0.035,0.605c-0.147,0.076-0.395,0.135-0.69,0.135c-0.36,0-0.653-0.135-0.843-0.361
		c-0.217-0.24-0.299-0.637-0.299-1.182V188.6h-0.664v-0.617h0.664v-0.834L176.95,186.896z"/>
	<path fill="#3E3A39" d="M179.964,186.896v1.088h1.115v0.617h-1.115v2.455c0,0.564,0.155,0.881,0.587,0.881
		c0.211,0,0.333-0.016,0.455-0.059l0.027,0.605c-0.149,0.076-0.383,0.135-0.693,0.135c-0.355,0-0.648-0.135-0.835-0.361
		c-0.228-0.24-0.303-0.637-0.303-1.182V188.6h-0.663v-0.617h0.663v-0.834L179.964,186.896z"/>
	<path fill="#3E3A39" d="M184.721,189.805c0.008-0.527-0.213-1.332-1.088-1.332c-0.781,0-1.137,0.762-1.195,1.332H184.721z
		 M182.425,190.389c0.028,1.125,0.698,1.58,1.474,1.58c0.563,0,0.9-0.1,1.19-0.234l0.14,0.6c-0.278,0.127-0.752,0.287-1.434,0.287
		c-1.324,0-2.111-0.93-2.111-2.305c0-1.359,0.771-2.428,2.012-2.428c1.396,0,1.777,1.285,1.777,2.129
		c0,0.16-0.021,0.287-0.029,0.371H182.425L182.425,190.389z"/>
	<path fill="#3E3A39" d="M189.245,189.805c0.017-0.527-0.205-1.332-1.08-1.332c-0.792,0-1.14,0.762-1.19,1.332H189.245z
		 M186.968,190.389c0.011,1.125,0.685,1.58,1.468,1.58c0.561,0,0.892-0.1,1.188-0.234l0.128,0.6
		c-0.273,0.127-0.74,0.287-1.421,0.287c-1.319,0-2.108-0.93-2.108-2.305c0-1.359,0.758-2.428,2.008-2.428
		c1.401,0,1.771,1.285,1.771,2.129c0,0.16-0.021,0.287-0.021,0.371H186.968L186.968,190.389z"/>
</g>
</svg>
