<?xml version="1.0" encoding="utf-8"?>
<!-- Generator: Adobe Illustrator 16.0.3, SVG Export Plug-In . SVG Version: 6.00 Build 0)  -->
<!DOCTYPE svg PUBLIC "-//W3C//DTD SVG 1.1//EN" "http://www.w3.org/Graphics/SVG/1.1/DTD/svg11.dtd">
<svg version="1.1" id="logo_kyobo" xmlns="http://www.w3.org/2000/svg" xmlns:xlink="http://www.w3.org/1999/xlink" x="0px" y="0px"
	 width="200px" height="200px" viewBox="0 0 200 200" enable-background="new 0 0 200 200" xml:space="preserve">
<g>
	<polygon fill="#003477" points="54.272,192.699 54.272,182.193 50.408,182.193 50.408,192.699 47.772,192.699 47.772,182.193 
		43.907,182.193 43.907,192.699 38.684,192.699 38.684,195.659 62.548,195.659 62.548,192.699 	"/>
	<path fill="#003477" d="M56.441,189.823h2.521c0.946-4.744,1.609-10.669,2.009-14.644c0.214-2.145,0.226-3.264-1.747-3.264H41.266
		v2.965h15.176L56.441,189.823L56.441,189.823z"/>
	<polygon fill="#003477" points="80.424,192.699 80.424,187.643 76.116,187.643 76.116,192.699 66.266,192.699 66.266,195.659 
		90.134,195.659 90.134,192.699 	"/>
	<path fill="#003477" d="M73.926,179.498h8.541v4.002h-8.541V179.498z M84.387,186.049c1.78,0,2.394-0.97,2.394-2.354v-12.028
		h-4.313v4.868h-8.542v-4.868h-4.306v12.028c0,1.385,0.606,2.354,2.391,2.354H84.387z"/>
	<path fill="#003477" d="M135.559,194.025c-0.795,0.648-1.869,0.93-3.045,0.93c-1.168,0-2.246-0.281-3.043-0.93
		c-0.72-0.578-0.93-1.264-0.93-2.016c0-0.758,0.21-1.438,0.93-2.021c0.797-0.64,1.875-0.914,3.043-0.914
		c1.176,0,2.25,0.274,3.045,0.914c0.723,0.583,0.93,1.263,0.93,2.021C136.486,192.762,136.279,193.447,135.559,194.025
		 M138.23,187.754c-1.584-1.002-3.567-1.438-5.717-1.438c-2.147,0-4.135,0.436-5.717,1.438c-1.74,1.104-2.539,2.598-2.539,4.258
		s0.799,3.158,2.539,4.261c1.582,0.997,3.568,1.433,5.717,1.433s4.133-0.436,5.717-1.433c1.742-1.103,2.541-2.601,2.541-4.261
		C140.771,190.35,139.973,188.856,138.23,187.754"/>
	<polygon fill="#003477" points="136.532,170.748 136.532,173.95 133.279,173.95 133.279,176.903 136.532,176.903 136.532,178.916 
		133.279,178.916 133.279,181.877 136.532,181.877 136.532,185.661 140.843,185.661 140.843,170.748 	"/>
	<path fill="#003477" d="M127.589,181.41h-3.146v-6.529h3.146V181.41z M129.503,184.375c1.782,0,2.394-0.969,2.394-2.354v-10.105
		h-11.76v10.105c0,1.385,0.612,2.354,2.396,2.354H129.503z"/>
	<path fill="#003477" d="M102.07,185.045l1.943-1.427c-3.193-3.544-4.113-7.212-4.113-11.952H95.9c0,4.74-0.915,8.408-4.106,11.952
		l1.943,1.427c1.921-1.634,3.134-3.379,4.166-5.504C98.936,181.666,100.146,183.411,102.07,185.045"/>
	<path fill="#003477" d="M108.975,194.064c-0.793,0.621-1.877,0.891-3.043,0.891c-1.173,0-2.252-0.27-3.049-0.891
		c-0.718-0.553-0.924-1.213-0.924-1.939c0-0.726,0.206-1.387,0.924-1.938c0.797-0.617,1.876-0.887,3.049-0.887
		c1.166,0,2.25,0.27,3.043,0.887c0.721,0.552,0.932,1.213,0.932,1.938C109.904,192.852,109.693,193.512,108.975,194.064
		 M111.646,187.961c-1.582-0.984-3.568-1.41-5.715-1.41c-2.149,0-4.137,0.426-5.721,1.41c-1.742,1.071-2.536,2.532-2.536,4.164
		c0,1.631,0.794,3.1,2.536,4.176c1.584,0.976,3.571,1.403,5.721,1.403c2.146,0,4.133-0.429,5.715-1.403
		c1.74-1.076,2.535-2.545,2.535-4.176C114.182,190.493,113.387,189.032,111.646,187.961"/>
	<polygon fill="#003477" points="110.393,170.748 110.393,176.274 108.793,176.274 108.793,170.748 104.932,170.748 104.932,185.43 
		108.793,185.43 108.793,179.229 110.393,179.229 110.393,185.43 114.252,185.43 114.252,170.748 	"/>
	<path fill="#003477" d="M94.523,152.016v0.007c-1.435,1.784-3.692,2.809-6.279,2.809c-2.542,0-4.851-1.022-6.238-2.809
		c-1.601-1.943-2.445-5.181-2.445-9.269c0-4.084,0.844-7.279,2.445-9.272c1.387-1.783,3.696-2.761,6.238-2.761
		c2.587,0,4.847,0.978,6.279,2.761c1.605,1.993,2.431,5.188,2.431,9.272C96.955,146.842,96.128,150.079,94.523,152.016
		 M88.244,125.983c-4.391,0-8.245,1.392-10.854,4.001c-2.985,2.886-4.623,7.423-4.623,12.77c0,5.34,1.638,9.881,4.623,12.767
		c2.609,2.616,6.463,4.04,10.854,4.04c4.385,0,8.293-1.424,10.899-4.04c2.936-2.882,4.576-7.427,4.576-12.767
		c0-5.347-1.641-9.883-4.576-12.77C96.534,127.375,92.629,125.983,88.244,125.983"/>
	<path fill="#003477" d="M168.422,152.022L168.422,152.022c-1.436,1.782-3.691,2.809-6.279,2.809c-2.543,0-4.849-1.024-6.246-2.809
		c-1.59-1.943-2.437-5.185-2.437-9.269s0.847-7.279,2.437-9.268c1.397-1.788,3.703-2.76,6.246-2.76c2.588,0,4.849,0.972,6.279,2.752
		c1.605,1.996,2.426,5.191,2.426,9.275S170.027,150.079,168.422,152.022 M173.045,129.989c-2.619-2.614-6.521-4.006-10.902-4.006
		c-4.387,0-8.244,1.392-10.875,4.006c-2.961,2.881-4.588,7.418-4.588,12.765c0,5.34,1.627,9.881,4.588,12.766
		c2.631,2.617,6.485,4.047,10.875,4.047c4.383,0,8.283-1.43,10.902-4.047c2.938-2.885,4.571-7.426,4.571-12.766
		C177.616,137.407,175.988,132.87,173.045,129.989"/>
	<path fill="#003477" d="M57.466,158.793c-0.374-0.332-0.829-1.096-0.829-2.244v-11.647l11.103-18.21h-7.604
		c0.55,0.535,0.602,1.395-0.065,2.418l-6.015,10.195c-5.055-8.961-5.047-9.215-5.964-10.846c-0.715-1.232-1.323-1.769-2.668-1.769
		h-5.995c0.475,0.427,0.964,1.077,1.991,2.748l8.854,15.379v11.729c0,1.149-0.452,1.914-0.829,2.244h8.021V158.793z"/>
	<path fill="#003477" d="M128.622,153.387c1.881-1.184,2.313-2.903,2.313-4.705c0-3.521-3.162-5.143-6.213-5.143
		c-0.649,0-2.218,0.02-3.217,0.188v10.285C123.6,154.586,126.949,154.439,128.622,153.387 M121.507,138.811
		c1.185,0.138,3.604-0.016,4.642-0.545c1.037-0.526,2.229-1.305,2.229-3.33c0-1.924-1.722-3.627-4.233-3.627
		c-0.941,0-1.724,0.049-2.638,0.328V138.811z M114.314,158.793c0.373-0.332,0.828-1.096,0.828-2.244v-27.617
		c0-1.144-0.455-1.91-0.828-2.241h10.865c5.217,0,9.758,2.46,9.758,7.237c0,2.021-0.942,4.883-3.356,6.148
		c2.928,1.092,6.026,3.732,6.026,8.209c0,3.322-1.683,6.236-3.95,7.909c-2.099,1.548-4.521,2.597-8.478,2.597h-10.865V158.793z"/>
	<path fill="#003477" d="M10.831,156.549c0,1.144-0.452,1.916-0.831,2.244h8.027c-0.379-0.328-0.833-1.102-0.833-2.244v-12.537
		l9.319,13.012c0.858,1.23,1.528,1.77,2.878,1.77h6.43c-0.523-0.43-1.093-1.076-2.315-2.744l-10.511-14.58l10.748-14.776h-7.906
		c0.412,0.528,0.463,1.183-0.308,2.444l-8.336,11.76v-11.959c0-1.148,0.454-1.918,0.833-2.247H10
		c0.379,0.329,0.831,1.098,0.831,2.247V156.549z"/>
	<path fill="#63A70A" d="M145.328,89.439c-2.564,0.159-4.749-1.739-4.91-4.229c-0.159-2.492,1.762-4.647,4.327-4.803
		c2.54-0.161,4.729,1.742,4.887,4.233C149.794,87.13,147.867,89.281,145.328,89.439 M187.913,82.723
		c-2.993-2.967-7.942-2.453-10.864,0.578c-3.793,3.898-6.746,5.353-10.262,5.204c-4.91-0.208-7.332-3.917-9.859-8.606
		c-2.619-4.901-6.642-7.626-11.662-7.626c-7.896,0-12.633,6.256-12.633,13.232c0,10.733,7.717,17.153,13.055,19.863
		c4.438,2.257,9.377,3.2,13.766,3.308c-0.26,2.57-1.032,5.959-1.887,8.354h0.455h4.096h4.094h0.393
		c-0.892-2.395-1.679-6.057-1.922-8.632c13.233-1.685,19.516-7.565,22.957-13.165c1.545-2.456,2.37-5.009,2.362-7.296
		C189.99,85.925,189.335,84.104,187.913,82.723"/>
</g>
</svg>
