<?xml version="1.0" encoding="utf-8"?>
<!-- Generator: Adobe Illustrator 16.0.3, SVG Export Plug-In . SVG Version: 6.00 Build 0)  -->
<!DOCTYPE svg PUBLIC "-//W3C//DTD SVG 1.1//EN" "http://www.w3.org/Graphics/SVG/1.1/DTD/svg11.dtd">
<svg version="1.1" id="logo_hope" xmlns="http://www.w3.org/2000/svg" xmlns:xlink="http://www.w3.org/1999/xlink" x="0px" y="0px"
	 width="200px" height="200px" viewBox="0 0 200 200" enable-background="new 0 0 200 200" xml:space="preserve">
<g>
	<g>
		<polygon fill="#595757" points="103,128.061 97,128.061 97,133.061 103,133.061 103,142.061 108,142.061 108,120.061 103,120.061 
					"/>
		<polygon fill="#595757" points="96,125.061 96,121.061 77,121.061 77,125.061 82.941,125.061 75.377,137.627 79.845,140.354 
			86.22,129.646 92.514,140.236 96.972,137.431 89.596,125.061 		"/>
		<rect x="113" y="120.061" fill="#595757" width="5" height="22"/>
		<polygon fill="#595757" points="155,120.061 150,120.061 150,141.061 155,141.061 155,133.061 162,133.061 162,128.061 
			155,128.061 		"/>
		<polygon fill="#595757" points="136,151.061 150,151.061 150,162.061 155,162.061 155,146.061 136,146.061 		"/>
		<polygon fill="#595757" points="145.801,136.804 138.145,125.061 145,125.061 145,120.061 125,120.061 125,125.061 
			131.488,125.061 123.743,136.984 128.027,139.809 134.859,129.142 141.516,139.627 		"/>
		<polygon fill="#595757" points="182,146.061 182,138.061 177,138.061 177,146.061 163,146.061 163,151.061 195,151.061 
			195,146.061 		"/>
		<polygon fill="#595757" points="179.184,128.408 188.572,138.89 192.395,135.428 182,123.86 182,109.061 177,109.061 177,123.852 
			166.291,135.428 169.796,138.89 		"/>
	</g>
	<polygon fill="#9E9E9F" points="17.193,177.793 17.193,191.748 14.569,191.748 14.569,177.793 10.267,177.793 10.267,175.563 
		21.468,175.563 21.468,177.793 	"/>
	<path fill="#9E9E9F" d="M22.821,191.748v-16.187h2.25v7.44c0.482-0.723,1.042-1.256,1.688-1.586c0.649-0.33,1.434-0.5,2.366-0.5
		c0.782,0,1.442,0.123,1.995,0.371c0.547,0.248,0.978,0.615,1.285,1.103c0.184,0.28,0.316,0.623,0.395,1.004
		c0.085,0.39,0.121,1.058,0.121,2.021v6.334h-2.41v-5.367c0-1.375-0.171-2.283-0.504-2.738c-0.335-0.453-0.932-0.676-1.786-0.676
		c-0.561,0-1.062,0.098-1.5,0.306c-0.44,0.205-0.783,0.491-1.03,0.867c-0.179,0.252-0.306,0.571-0.38,0.971
		c-0.065,0.392-0.101,1.017-0.101,1.88v4.76h-2.389V191.748z"/>
	<path fill="#9E9E9F" d="M43.288,185.248c-0.097-0.742-0.385-1.311-0.859-1.703c-0.48-0.393-1.131-0.578-1.965-0.578
		c-0.788,0-1.417,0.188-1.895,0.563c-0.48,0.383-0.815,0.951-1.004,1.721h5.723V185.248z M45.779,186.869H37.41
		c0.056,0.978,0.348,1.736,0.87,2.282c0.522,0.544,1.21,0.815,2.081,0.815c0.768,0,1.41-0.158,1.926-0.488
		c0.512-0.314,0.961-0.838,1.34-1.559l2.021,1.119c-0.586,1.059-1.315,1.849-2.187,2.358c-0.864,0.517-1.882,0.774-3.049,0.774
		c-1.681,0-3.01-0.512-4.004-1.539c-0.992-1.018-1.49-2.381-1.49-4.088c0-1.645,0.514-2.985,1.544-4.045
		c1.024-1.057,2.346-1.584,3.958-1.584c1.686,0,3.001,0.485,3.947,1.444c0.939,0.968,1.412,2.313,1.412,4.056V186.869z"/>
	<polygon fill="#9E9E9F" points="54.402,191.748 54.402,175.563 57.025,175.563 57.025,181.52 65.001,181.52 65.001,175.563 
		67.625,175.563 67.625,191.748 65.001,191.748 65.001,183.881 57.025,183.881 57.025,191.748 	"/>
	<path fill="#9E9E9F" d="M78.936,186.545c0-0.971-0.313-1.797-0.946-2.465c-0.63-0.674-1.398-1.011-2.308-1.011
		c-0.903,0-1.672,0.337-2.305,1.011c-0.635,0.668-0.95,1.494-0.95,2.465c0,0.967,0.314,1.791,0.95,2.468
		c0.633,0.671,1.402,1.006,2.305,1.006c0.904,0,1.668-0.335,2.301-1.006C78.62,188.336,78.936,187.512,78.936,186.545
		 M69.909,186.52c0-0.764,0.145-1.482,0.437-2.164c0.294-0.684,0.706-1.285,1.257-1.816c0.537-0.522,1.16-0.926,1.854-1.205
		c0.702-0.277,1.434-0.416,2.202-0.416c0.791,0,1.531,0.139,2.228,0.416c0.698,0.279,1.319,0.692,1.875,1.24
		c0.551,0.537,0.975,1.143,1.259,1.817c0.289,0.672,0.434,1.39,0.434,2.128c0,0.773-0.145,1.496-0.423,2.178
		c-0.286,0.676-0.702,1.276-1.244,1.803c-0.582,0.547-1.213,0.965-1.919,1.25c-0.699,0.279-1.438,0.424-2.21,0.424
		c-0.758,0-1.487-0.146-2.188-0.424c-0.7-0.285-1.322-0.696-1.867-1.233c-0.558-0.542-0.973-1.149-1.26-1.834
		C70.054,188.012,69.909,187.289,69.909,186.52"/>
	<path fill="#9E9E9F" d="M85.835,186.479c0,1.083,0.269,1.945,0.811,2.596c0.54,0.646,1.252,0.971,2.135,0.971
		c0.908,0,1.605-0.299,2.104-0.902c0.498-0.604,0.749-1.462,0.749-2.575c0-1.104-0.263-1.967-0.779-2.588
		c-0.517-0.625-1.235-0.938-2.138-0.938c-0.907,0-1.611,0.297-2.12,0.908C86.088,184.557,85.835,185.396,85.835,186.479
		 M83.522,196.686v-15.402h2.39v1.705c0.279-0.66,0.728-1.172,1.343-1.527c0.617-0.362,1.353-0.543,2.21-0.543
		c1.39,0,2.52,0.511,3.384,1.539c0.868,1.026,1.301,2.375,1.301,4.047c0,1.757-0.427,3.144-1.277,4.146
		c-0.852,1.019-2.019,1.522-3.501,1.522c-0.736,0-1.391-0.15-1.965-0.438c-0.567-0.295-1.068-0.744-1.495-1.346v6.297H83.522z"/>
	<path fill="#9E9E9F" d="M103.852,185.248c-0.093-0.742-0.379-1.311-0.854-1.703c-0.481-0.393-1.131-0.578-1.966-0.578
		c-0.787,0-1.417,0.188-1.897,0.563c-0.478,0.383-0.808,0.951-1.004,1.721h5.722V185.248z M106.348,186.869h-8.374
		c0.063,0.978,0.351,1.736,0.87,2.282c0.521,0.544,1.218,0.815,2.08,0.815c0.773,0,1.418-0.158,1.93-0.488
		c0.515-0.314,0.959-0.838,1.342-1.559l2.02,1.119c-0.583,1.059-1.311,1.849-2.181,2.358c-0.869,0.517-1.892,0.774-3.056,0.774
		c-1.678,0-3.012-0.512-4.005-1.539c-0.993-1.018-1.489-2.381-1.489-4.088c0-1.645,0.515-2.985,1.544-4.045
		c1.024-1.057,2.347-1.584,3.962-1.584c1.683,0,3,0.485,3.945,1.444c0.938,0.968,1.412,2.313,1.412,4.056V186.869L106.348,186.869z"
		/>
	<rect x="114.994" y="175.563" fill="#9E9E9F" width="2.623" height="16.188"/>
	<path fill="#9E9E9F" d="M120.759,191.748v-10.465h2.243v1.721c0.479-0.723,1.046-1.258,1.693-1.586
		c0.648-0.33,1.438-0.502,2.365-0.502c0.78,0,1.445,0.125,1.989,0.373c0.554,0.248,0.984,0.614,1.291,1.102
		c0.187,0.281,0.317,0.623,0.396,1.004c0.086,0.389,0.127,1.057,0.127,2.02v6.336h-2.41v-5.369c0-1.373-0.178-2.282-0.508-2.737
		c-0.34-0.453-0.934-0.677-1.789-0.677c-0.561,0-1.061,0.099-1.494,0.307c-0.439,0.205-0.784,0.491-1.037,0.867
		c-0.182,0.252-0.3,0.572-0.372,0.971c-0.069,0.391-0.106,1.016-0.106,1.879v4.76h-2.388V191.748z"/>
	<path fill="#9E9E9F" d="M132.406,189.844l1.994-1.083c0.145,0.521,0.418,0.923,0.811,1.192c0.402,0.272,0.914,0.406,1.537,0.406
		c0.537,0,0.956-0.119,1.262-0.365c0.305-0.248,0.459-0.588,0.459-1.017c0-0.563-0.545-1.051-1.632-1.458
		c-0.368-0.128-0.649-0.242-0.851-0.329c-1.111-0.461-1.894-0.935-2.336-1.411c-0.447-0.479-0.666-1.063-0.666-1.744
		c0-0.935,0.365-1.693,1.096-2.275c0.732-0.578,1.703-0.871,2.908-0.871c0.809,0,1.501,0.148,2.078,0.445
		c0.576,0.302,1,0.723,1.264,1.279l-1.709,1.164c-0.124-0.328-0.342-0.59-0.653-0.785c-0.312-0.193-0.672-0.295-1.09-0.295
		c-0.448,0-0.817,0.107-1.094,0.325c-0.277,0.218-0.409,0.513-0.409,0.871c0,0.538,0.611,1.039,1.85,1.483
		c0.387,0.14,0.691,0.254,0.903,0.346c0.966,0.378,1.658,0.814,2.075,1.296c0.419,0.479,0.627,1.085,0.627,1.802
		c0,1.049-0.379,1.869-1.139,2.465c-0.756,0.588-1.808,0.885-3.145,0.885c-1.021,0-1.867-0.187-2.546-0.575
		C133.32,191.217,132.789,190.629,132.406,189.844"/>
	<polygon fill="#9E9E9F" points="143.373,191.748 143.373,183.383 141.535,183.383 141.535,181.283 143.373,181.283 
		143.373,177.324 145.766,177.324 145.766,181.283 147.602,181.283 147.602,183.383 145.766,183.383 145.766,191.748 	"/>
	<path fill="#9E9E9F" d="M149.313,181.283h2.392v10.467h-2.392V181.283z M148.975,176.75c0-0.408,0.148-0.76,0.445-1.058
		c0.299-0.296,0.658-0.444,1.074-0.444c0.429,0,0.781,0.144,1.068,0.426c0.289,0.285,0.429,0.648,0.429,1.076
		c0,0.422-0.146,0.785-0.435,1.076c-0.289,0.293-0.64,0.441-1.063,0.441c-0.416,0-0.775-0.154-1.074-0.454
		C149.123,177.52,148.975,177.16,148.975,176.75"/>
	<polygon fill="#9E9E9F" points="155.268,191.748 155.268,183.383 153.432,183.383 153.432,181.283 155.268,181.283 
		155.268,177.324 157.658,177.324 157.658,181.283 159.496,181.283 159.496,183.383 157.658,183.383 157.658,191.748 	"/>
	<path fill="#9E9E9F" d="M163.41,181.283v5.893c0,1.018,0.214,1.744,0.631,2.179c0.428,0.442,1.111,0.665,2.061,0.665
		c0.945,0,1.633-0.223,2.053-0.665c0.425-0.435,0.634-1.161,0.634-2.179v-5.893h2.388v5.174c0,1.998-0.396,3.455-1.201,4.357
		c-0.805,0.904-2.091,1.355-3.854,1.355c-1.788,0-3.089-0.445-3.89-1.346c-0.805-0.897-1.211-2.354-1.211-4.369v-5.172H163.41
		L163.41,181.283z"/>
	<polygon fill="#9E9E9F" points="174.533,191.748 174.533,183.383 172.7,183.383 172.7,181.283 174.533,181.283 174.533,177.324 
		176.918,177.324 176.918,181.283 178.757,181.283 178.757,183.383 176.918,183.383 176.918,191.748 	"/>
	<path fill="#9E9E9F" d="M187.977,185.248c-0.099-0.742-0.386-1.311-0.863-1.703c-0.473-0.393-1.131-0.578-1.959-0.578
		c-0.793,0-1.422,0.188-1.895,0.563c-0.48,0.383-0.813,0.951-1.008,1.721h5.725V185.248z M190.467,186.869h-8.371
		c0.063,0.978,0.353,1.736,0.871,2.282c0.52,0.544,1.217,0.815,2.078,0.815c0.775,0,1.415-0.158,1.928-0.488
		c0.516-0.314,0.959-0.838,1.344-1.559l2.021,1.119c-0.594,1.059-1.322,1.849-2.186,2.358c-0.866,0.517-1.883,0.774-3.055,0.774
		c-1.679,0-3.012-0.512-4.005-1.539c-0.993-1.018-1.483-2.381-1.483-4.088c0-1.645,0.508-2.985,1.539-4.045
		c1.025-1.057,2.346-1.584,3.961-1.584c1.687,0,2.998,0.485,3.943,1.444c0.943,0.968,1.413,2.313,1.413,4.056L190.467,186.869
		L190.467,186.869z"/>
	<g>
		<rect x="5" y="157.061" fill="#FF671B" width="23" height="4"/>
		<rect x="33" y="146.061" fill="#FF671B" width="5" height="21"/>
		<path fill="#FF671B" d="M55.127,146.453c-2.855,0-5.315,0.992-7.382,2.967c-2.066,1.969-3.099,4.359-3.099,7.154
			c0,2.793,1.032,5.178,3.099,7.15c2.067,1.977,4.527,2.962,7.382,2.962s5.315-0.985,7.381-2.962
			c2.066-1.973,3.098-4.357,3.098-7.15c0-2.795-1.032-5.187-3.098-7.154C60.443,147.445,57.983,146.453,55.127,146.453z
			 M58.906,160.352c-1.002,1.008-2.264,1.509-3.779,1.509c-1.519,0-2.796-0.501-3.829-1.509c-1.033-1.002-1.546-2.262-1.546-3.777
			c0-1.52,0.514-2.783,1.546-3.785c1.033-1.002,2.31-1.502,3.829-1.502c1.515,0,2.777,0.5,3.779,1.502
			c1.004,1.002,1.508,2.267,1.508,3.785C60.415,158.09,59.911,159.35,58.906,160.352z"/>
		<path fill="#FF671B" d="M33,141.061h19v-19H33V141.061z M38,126.061h9v10h-9V126.061z"/>
		<polygon fill="#FF671B" points="65,129.061 65,121.061 59,121.061 59,142.061 65,142.061 65,134.061 72,134.061 72,129.061 		"/>
		<path fill="#FF671B" d="M27,126.061h-8.237h-1.126c2.08-21,16.879-26.643,16.879-26.643l-1.262-2.791
			c-15.471,5.978-19.346,23.434-20.286,29.434h-0.04H5v5h22V126.061z"/>
		<path fill="#FF671B" d="M9.151,136.557c-1.915,1.818-2.873,4.007-2.873,6.557c0,2.559,0.958,4.729,2.873,6.516
			c1.911,1.795,4.175,2.689,6.787,2.689c2.611,0,4.858-0.896,6.747-2.689c1.882-1.787,2.824-3.957,2.824-6.516
			c0-2.55-0.941-4.738-2.824-6.557c-1.888-1.823-4.136-2.737-6.747-2.737C13.326,133.819,11.063,134.733,9.151,136.557z
			 M20.222,143.113c0,1.162-0.41,2.163-1.234,3.01c-0.819,0.848-1.836,1.276-3.05,1.276c-1.215,0-2.25-0.43-3.097-1.276
			c-0.851-0.847-1.277-1.848-1.277-3.01c0-1.213,0.427-2.244,1.277-3.097c0.848-0.849,1.882-1.276,3.097-1.276
			c1.213,0,2.231,0.428,3.05,1.276C19.812,140.869,20.222,141.899,20.222,143.113z"/>
		<polygon fill="#FF671B" points="35.654,102.379 38.7,104.479 43.106,97.977 47.783,104.479 50.561,102.379 46.087,96.21 
			53.475,93.64 52.185,90.382 45,93.097 45,85.061 41,85.061 41,93.097 33.951,90.382 32.804,93.64 40.021,96.21 		"/>
	</g>
</g>
</svg>
